<?xml version="1.0" standalone="no"?>
<!DOCTYPE svg PUBLIC "-//W3C//DTD SVG 20010904//EN"
 "http://www.w3.org/TR/2001/REC-SVG-20010904/DTD/svg10.dtd">
<svg version="1.0" xmlns="http://www.w3.org/2000/svg"
 width="200.000000pt" height="200.000000pt" viewBox="0 0 200.000000 200.000000"
 preserveAspectRatio="xMidYMid meet">
<metadata>
Created by potrace 1.14, written by Peter Selinger 2001-2017
</metadata>
<g transform="translate(0.000000,200.000000) scale(0.100000,-0.100000)"
fill="#000000" stroke="none">
<path d="M450 1996 c0 -2 7 -6 15 -10 8 -3 15 -1 15 4 0 6 -7 10 -15 10 -8 0
-15 -2 -15 -4z"/>
<path d="M518 1993 c-10 -2 -18 -9 -18 -15 0 -5 7 -8 15 -5 8 4 17 2 20 -4 4
-5 12 -9 18 -8 27 3 39 -2 34 -15 -3 -8 1 -20 9 -26 8 -7 14 -18 14 -25 0 -12
-62 -59 -89 -67 -8 -2 14 -15 49 -27 204 -75 256 -326 99 -478 -24 -23 -61
-49 -81 -57 -29 -13 -36 -20 -33 -38 3 -12 10 -25 17 -30 12 -7 4 -12 -14 -9
-5 0 -8 -8 -8 -20 0 -11 4 -18 9 -15 9 6 21 -40 21 -80 0 -15 6 -24 16 -24 11
0 13 -6 8 -22 -4 -13 -8 -31 -8 -40 0 -10 -4 -18 -8 -18 -4 0 -8 -11 -8 -25 0
-14 4 -25 9 -25 5 0 7 9 4 20 -3 11 -1 20 5 20 17 0 22 -43 6 -61 -13 -14 -16
-35 -13 -104 0 -11 6 -30 12 -43 8 -17 8 -25 0 -30 -8 -5 -6 -18 7 -45 12 -25
15 -37 7 -38 -7 -1 6 -5 28 -8 34 -5 40 -10 43 -33 3 -24 -1 -27 -30 -30 -31
-3 -34 -6 -42 -50 -5 -27 -13 -48 -18 -48 -4 0 -8 -6 -8 -13 0 -8 -11 -24 -25
-37 -14 -13 -24 -28 -23 -34 2 -18 -14 -46 -23 -40 -5 3 -9 -2 -9 -10 0 -18
-34 -56 -50 -56 -5 0 -10 7 -10 15 0 24 -23 65 -36 65 -8 0 -13 10 -12 24 1
14 6 23 10 20 4 -3 13 15 19 38 13 46 35 78 53 78 6 0 16 11 23 25 l11 25
-123 0 -123 0 1 280 2 280 22 0 c18 0 23 6 23 24 0 14 -4 27 -9 31 -10 5 24
45 56 65 16 10 15 10 -4 5 -35 -10 -87 26 -88 60 0 6 -6 10 -14 10 -8 0 -16 6
-19 14 -3 9 0 11 8 6 7 -4 3 5 -8 21 -32 43 -54 140 -46 199 6 49 44 138 64
150 5 3 10 11 10 17 0 7 -5 6 -15 -2 -8 -7 -26 -10 -39 -8 -24 5 -42 -14 -31
-32 3 -4 -2 -10 -10 -14 -8 -3 -12 -11 -10 -18 3 -7 -7 -26 -21 -43 -14 -16
-31 -41 -38 -55 -18 -38 -19 -138 -1 -205 8 -33 18 -105 21 -160 4 -58 11
-106 19 -115 16 -19 30 -66 50 -163 16 -77 16 -79 -5 -123 -12 -24 -37 -56
-55 -70 -28 -21 -41 -24 -84 -21 -40 3 -51 1 -51 -10 0 -8 9 -17 20 -20 11 -3
20 -10 20 -15 0 -6 7 -8 15 -4 8 3 21 -1 29 -9 8 -8 19 -15 25 -15 6 0 11 -4
11 -8 0 -4 16 -14 35 -21 19 -7 35 -17 35 -22 0 -5 9 -9 19 -9 12 0 21 -9 25
-24 10 -41 -2 -54 -52 -59 -26 -2 -73 -12 -105 -21 -32 -9 -63 -14 -68 -10 -5
3 -9 -11 -9 -30 0 -20 5 -36 10 -36 6 0 10 5 10 11 0 7 10 5 25 -5 21 -14 25
-14 25 -2 0 18 22 15 44 -7 12 -11 15 -24 11 -38 -6 -17 -9 -19 -16 -8 -7 12
-9 12 -9 0 0 -7 -6 -11 -13 -8 -8 3 -19 2 -26 -3 -9 -5 -3 -11 18 -18 35 -12
40 -21 14 -21 -10 -1 -35 -4 -56 -7 l-37 -6 0 -58 0 -58 57 15 c32 8 63 18 68
22 6 4 21 8 35 9 14 1 35 4 48 7 12 3 22 1 22 -4 0 -5 10 -11 22 -15 18 -4 20
-8 10 -18 -10 -10 -14 -10 -21 1 -5 8 -11 9 -15 3 -3 -5 0 -12 7 -15 22 -8 2
-107 -21 -107 -5 0 -7 -11 -4 -25 4 -21 1 -24 -14 -19 -16 5 -16 4 -4 -5 10
-7 261 -11 823 -11 l808 0 -30 43 c-16 24 -45 55 -63 69 -68 52 -165 155 -210
223 -55 84 -88 178 -117 335 -12 63 -29 145 -39 182 l-17 68 -47 0 -48 0 0
-134 c0 -158 4 -166 81 -166 46 0 49 -2 49 -25 0 -24 -2 -25 -63 -25 -69 0
-99 17 -118 67 -5 13 -9 130 -9 259 l0 234 30 0 30 0 0 -75 0 -75 44 0 43 0 7
178 c6 147 5 183 -8 213 -11 25 -15 70 -15 153 0 128 5 138 57 120 19 -7 42
-4 82 9 36 12 68 17 95 13 l40 -6 -27 15 c-58 32 -189 49 -232 30 -18 -8 -19
-4 -13 91 4 54 13 123 21 152 l14 52 -411 -1 c-227 -1 -420 -3 -429 -6z m723
-183 c5 0 9 -115 9 -275 l0 -275 -30 0 c-26 0 -30 4 -30 27 0 24 -1 25 -17 11
-61 -53 -160 -64 -234 -25 -90 47 -133 170 -94 265 49 115 190 162 298 99 l47
-28 0 99 c0 101 4 116 28 107 7 -3 18 -5 23 -5z m-201 -865 c77 -54 110 -167
75 -253 -65 -153 -286 -171 -369 -29 -65 110 -29 237 83 298 56 30 155 23 211
-16z m-346 -631 c9 -3 17 -18 17 -33 1 -26 1 -26 8 3 9 42 31 46 31 5 0 -30 1
-31 18 -16 23 21 46 22 62 2 11 -13 14 -13 27 0 18 19 38 19 56 0 13 -12 16
-12 20 -1 9 22 105 16 122 -8 13 -17 14 -15 13 13 -1 38 10 51 26 31 23 -30
54 -41 80 -28 20 8 29 8 41 -2 24 -20 18 -40 -12 -41 l-28 -2 28 -4 c15 -2 25
-9 22 -14 -9 -13 -49 -11 -64 4 -11 10 -14 10 -18 0 -3 -7 -20 -13 -39 -13
-25 0 -34 4 -35 18 -1 16 -2 16 -6 0 -7 -28 -33 -22 -33 7 0 14 -4 25 -10 25
-5 0 -10 -11 -10 -25 0 -16 -6 -25 -15 -25 -9 0 -15 9 -15 25 0 14 -4 25 -10
25 -5 0 -10 -11 -10 -25 0 -16 -6 -25 -15 -25 -8 0 -15 5 -15 12 0 9 -3 9 -12
0 -17 -17 -58 -15 -65 4 -5 15 -7 15 -15 0 -14 -25 -63 -20 -76 7 l-11 22 0
-22 c-1 -24 -30 -33 -32 -10 0 10 -2 10 -6 0 -3 -8 -23 -13 -49 -13 l-44 0 0
48 c0 27 3 52 7 55 8 9 46 9 67 1z m596 -41 c0 -7 -4 -13 -10 -13 -5 0 -10
-11 -10 -25 0 -16 -6 -25 -15 -25 -11 0 -15 11 -15 39 0 35 2 39 25 37 14 0
25 -7 25 -13z m83 -33 c-2 -54 -27 -73 -63 -50 -13 9 -13 11 0 20 10 6 11 10
3 10 -13 0 -18 51 -7 63 4 4 21 5 38 3 30 -3 31 -6 29 -46z"/>
<path d="M970 1592 c-52 -26 -80 -74 -80 -138 0 -48 4 -58 36 -94 80 -89 212
-66 253 43 49 129 -86 251 -209 189z"/>
<path d="M876 920 c-66 -21 -111 -89 -104 -160 19 -192 298 -180 298 12 0 30
-7 62 -17 80 -33 55 -115 87 -177 68z"/>
<path d="M660 280 c0 -5 5 -10 10 -10 6 0 10 5 10 10 0 6 -4 10 -10 10 -5 0
-10 -4 -10 -10z"/>
<path d="M790 250 c0 -11 5 -20 10 -20 6 0 10 9 10 20 0 11 -4 20 -10 20 -5 0
-10 -9 -10 -20z"/>
<path d="M877 256 c-6 -15 1 -26 15 -26 11 0 10 27 -1 34 -5 3 -11 0 -14 -8z"/>
<path d="M1097 256 c-6 -15 1 -26 15 -26 11 0 10 27 -1 34 -5 3 -11 0 -14 -8z"/>
<path d="M660 240 c0 -5 7 -7 15 -4 8 4 15 8 15 10 0 2 -7 4 -15 4 -8 0 -15
-4 -15 -10z"/>
<path d="M1325 260 c-4 -6 -3 -16 3 -22 6 -6 12 -6 17 2 4 6 3 16 -3 22 -6 6
-12 6 -17 -2z"/>
<path d="M1330 209 c0 -5 5 -7 10 -4 6 3 10 8 10 11 0 2 -4 4 -10 4 -5 0 -10
-5 -10 -11z"/>
<path d="M384 1741 c-76 -35 -134 -128 -134 -216 0 -22 3 -24 19 -15 27 14 31
13 31 -10 0 -13 -7 -20 -20 -20 -22 0 -25 -7 -10 -30 8 -13 10 -12 10 3 0 9 7
17 15 17 25 0 29 1 42 11 15 13 53 -10 53 -32 0 -17 64 -43 90 -37 11 2 14 -5
12 -29 -2 -29 1 -33 23 -33 16 0 25 -6 25 -15 0 -34 63 -2 113 56 41 47 62
120 52 178 -9 55 -56 125 -106 158 -55 36 -153 42 -215 14z m115 -80 c9 -6 -8
-12 -51 -20 -36 -6 -69 -11 -74 -11 -15 0 43 28 68 33 38 7 42 7 57 -2z m-39
-50 c0 -4 -23 -11 -51 -14 -28 -4 -57 -11 -65 -17 -7 -7 -21 -10 -31 -8 -15 3
-14 6 7 18 38 21 140 37 140 21z m-170 -51 c0 -5 -5 -10 -11 -10 -5 0 -7 5 -4
10 3 6 8 10 11 10 2 0 4 -4 4 -10z m226 -8 c16 -10 25 -45 15 -60 -4 -7 -19
-15 -33 -16 -24 -3 -25 0 -24 40 1 44 14 55 42 36z m-146 -17 c0 -8 -4 -15 -9
-15 -13 0 -22 16 -14 24 11 11 23 6 23 -9z"/>
<path d="M59 1703 c0 -10 -1 -35 -2 -56 -1 -21 3 -43 9 -48 7 -6 11 12 12 56
1 38 -2 65 -8 65 -5 0 -10 -8 -11 -17z"/>
<path d="M1990 1672 c0 -16 -38 -53 -51 -50 -7 2 -14 -6 -16 -17 -1 -11 -9
-45 -18 -75 -9 -30 -17 -80 -18 -110 -2 -30 -6 -60 -9 -66 -4 -6 -5 -23 -2
-37 2 -16 0 -27 -7 -27 -20 0 -68 -64 -75 -98 -4 -18 -4 -51 0 -72 9 -57 -3
-114 -28 -141 -22 -23 -22 -25 -5 -49 10 -14 19 -34 21 -45 2 -16 -3 -21 -30
-23 -20 -2 -30 -7 -26 -14 5 -7 1 -9 -9 -5 -34 13 -15 -4 37 -33 30 -17 60
-37 66 -45 23 -28 67 -28 125 0 l55 27 0 444 c0 244 -2 444 -5 444 -3 0 -5 -4
-5 -8z"/>
<path d="M1530 1600 c34 -11 60 -11 35 0 -11 5 -29 8 -40 8 -16 0 -15 -2 5 -8z"/>
<path d="M1627 1554 c5 -13 3 -15 -13 -6 -10 5 -35 8 -55 7 -58 -5 -163 -37
-176 -53 -27 -33 -9 -105 36 -146 17 -15 23 -16 36 -6 12 10 15 10 15 0 0 -9
4 -9 13 -2 6 5 33 13 59 16 26 4 50 11 53 17 4 5 12 9 18 9 7 0 6 -4 -3 -10
-11 -7 -8 -9 13 -8 58 5 76 96 32 161 -27 39 -38 48 -28 21z m-51 -81 c-10
-10 -19 5 -10 18 6 11 8 11 12 0 2 -7 1 -15 -2 -18z m-36 -70 c0 -7 -56 -2
-68 6 -20 12 -11 56 11 55 9 -1 17 3 17 9 0 6 9 -6 20 -28 11 -22 20 -41 20
-42z"/>
<path d="M415 1240 c3 -5 8 -10 11 -10 2 0 4 5 4 10 0 6 -5 10 -11 10 -5 0 -7
-4 -4 -10z"/>
<path d="M478 1233 c7 -3 16 -2 19 1 4 3 -2 6 -13 5 -11 0 -14 -3 -6 -6z"/>
<path d="M337 970 c-4 -14 -7 -96 -7 -182 l0 -158 100 0 c105 0 102 -2 83 48
-3 9 -7 23 -9 30 -1 7 -18 30 -37 51 -19 21 -38 49 -42 62 -4 13 -14 32 -23
42 -15 16 -14 17 4 12 15 -4 14 -3 -3 6 -20 10 -36 38 -53 94 -6 18 -7 18 -13
-5z"/>
<path d="M1950 565 c-21 -8 -79 -14 -147 -14 -110 -1 -147 -12 -109 -33 9 -5
19 -26 22 -46 8 -54 54 -116 87 -120 15 -2 27 -7 27 -10 0 -11 79 -30 128 -30
l42 -1 0 59 c0 47 -3 58 -14 54 -8 -3 -17 -12 -20 -20 -3 -8 -10 -14 -16 -14
-6 0 -9 4 -6 9 3 5 0 11 -8 14 -10 4 -12 0 -8 -15 4 -16 1 -19 -19 -16 -16 2
-24 10 -24 23 0 17 -6 20 -35 17 -30 -2 -32 -1 -17 9 10 6 36 9 58 7 21 -2 39
0 39 4 0 4 15 11 33 16 31 8 32 10 35 65 3 62 3 62 -48 42z"/>
<path d="M65 160 c4 -6 11 -8 16 -5 14 9 11 15 -7 15 -8 0 -12 -5 -9 -10z"/>
</g>
</svg>
